<svg width="856" height="466" viewBox="0 0 856 466" fill="none" xmlns="http://www.w3.org/2000/svg">
<rect width="856" height="466" fill="white"/>
<path d="M135.597 251.915C133.348 249.402 132.023 246.198 131.841 242.831V200.844C132.023 197.476 133.348 194.272 135.597 191.759L138.567 188.788C139.563 187.79 140.122 186.437 140.122 185.027C140.122 183.616 139.563 182.264 138.567 181.265L107.063 149.746C106.064 148.75 104.711 148.191 103.301 148.191C101.891 148.191 100.539 148.75 99.5396 149.746L87.5476 161.742C86.5562 162.743 86 164.095 86 165.503C86 166.912 86.5562 168.264 87.5476 169.265L110.033 191.758C112.285 194.268 113.612 197.474 113.792 200.843V242.83C113.613 246.197 112.286 249.4 110.033 251.908L87.5476 274.41C86.5562 275.411 86 276.763 86 278.171C86 279.58 86.5562 280.932 87.5476 281.933L99.5396 293.929C100.539 294.924 101.891 295.483 103.301 295.483C104.711 295.483 106.063 294.924 107.063 293.929L138.567 262.407C139.563 261.408 140.122 260.056 140.122 258.646C140.122 257.235 139.563 255.883 138.567 254.885L135.597 251.915Z" fill="#2738F5"/>
<path d="M222.176 278.383C219.665 280.632 216.463 281.959 213.097 282.145H171.137C167.769 281.959 164.564 280.633 162.05 278.383L159.087 275.404C158.084 274.412 156.732 273.856 155.322 273.856C153.912 273.856 152.56 274.412 151.557 275.404L120.057 306.924C119.062 307.925 118.504 309.279 118.504 310.69C118.504 312.101 119.062 313.455 120.057 314.455L132.049 326.452C133.05 327.444 134.402 328 135.812 328C137.221 328 138.573 327.444 139.574 326.452L162.054 303.947C164.568 301.699 167.771 300.373 171.138 300.187H213.11C216.476 300.372 219.678 301.698 222.189 303.947L244.679 326.452C245.68 327.444 247.031 328 248.44 328C249.848 328 251.2 327.444 252.2 326.452L264.192 314.455C265.187 313.455 265.745 312.101 265.745 310.69C265.745 309.279 265.187 307.925 264.192 306.924L232.669 275.402C231.669 274.41 230.318 273.854 228.91 273.854C227.502 273.854 226.15 274.41 225.15 275.402L222.176 278.383Z" fill="#2738F5"/>
<path d="M249.39 192.083C251.644 194.598 252.973 197.808 253.156 201.181V243.152C252.972 246.523 251.643 249.73 249.39 252.242L246.419 255.22C245.426 256.22 244.869 257.572 244.869 258.982C244.869 260.391 245.426 261.743 246.419 262.743L277.932 294.259C278.931 295.254 280.284 295.812 281.693 295.812C283.103 295.812 284.455 295.254 285.454 294.259L297.446 282.256C298.441 281.257 299 279.904 299 278.494C299 277.084 298.441 275.731 297.446 274.732L274.966 252.238C272.712 249.726 271.382 246.519 271.198 243.148L271.204 201.177C271.385 197.804 272.712 194.594 274.966 192.079L297.446 169.586C298.441 168.589 299 167.237 299 165.828C299 164.419 298.441 163.068 297.446 162.071L285.454 150.067C284.96 149.573 284.374 149.181 283.729 148.914C283.083 148.647 282.392 148.509 281.693 148.509C280.995 148.509 280.303 148.647 279.658 148.914C279.012 149.181 278.426 149.573 277.932 150.067L246.419 181.582C245.426 182.582 244.869 183.935 244.869 185.344C244.869 186.754 245.426 188.106 246.419 189.106L249.39 192.083Z" fill="#2738F5"/>
<path d="M162.81 165.616C165.32 163.364 168.524 162.037 171.891 161.854H213.854C217.22 162.04 220.422 163.366 222.934 165.616L225.911 168.593C226.404 169.087 226.99 169.479 227.635 169.746C228.28 170.014 228.971 170.151 229.669 170.151C230.367 170.151 231.059 170.014 231.703 169.746C232.348 169.479 232.934 169.087 233.428 168.593L264.936 137.071C265.93 136.07 266.488 134.717 266.488 133.306C266.488 131.895 265.93 130.541 264.936 129.54L252.944 117.558C251.946 116.56 250.593 116 249.182 116C247.771 116 246.418 116.56 245.42 117.558L222.935 140.051C220.423 142.301 217.221 143.627 213.855 143.813H171.891C168.524 143.631 165.32 142.303 162.81 140.051L140.325 117.558C139.323 116.566 137.971 116.01 136.562 116.01C135.154 116.01 133.802 116.566 132.8 117.558L120.808 129.554C119.814 130.555 119.256 131.908 119.256 133.319C119.256 134.73 119.814 136.084 120.808 137.084L152.31 168.592C153.308 169.59 154.661 170.15 156.072 170.15C157.482 170.15 158.836 169.59 159.834 168.592L162.81 165.616Z" fill="#2738F5"/>
<rect x="331" y="102" width="5" height="254" fill="#2738F5"/>
<path d="M388.96 189.032C388.96 187.411 389.515 186.088 390.624 185.064C391.819 183.955 393.312 183.4 395.104 183.4H430.432C438.709 183.4 445.28 185.832 450.144 190.696C455.093 195.475 457.568 201.875 457.568 209.896C457.568 219.965 453.173 227.091 444.384 231.272V231.656C448.224 233.277 451.168 235.752 453.216 239.08C455.264 242.323 456.288 246.291 456.288 250.984V264.168C456.288 267.411 455.264 269.885 453.216 271.592C451.168 273.299 448.181 274.152 444.256 274.152V251.752C444.256 246.717 443.104 242.92 440.8 240.36C438.581 237.715 435.253 236.392 430.816 236.392H400.864V264.168C400.864 267.411 399.84 269.885 397.792 271.592C395.829 273.299 392.885 274.152 388.96 274.152V189.032ZM430.048 226.024C434.741 226.024 438.453 224.573 441.184 221.672C444 218.771 445.408 214.803 445.408 209.768C445.408 204.648 444.085 200.723 441.44 197.992C438.795 195.261 434.997 193.896 430.048 193.896H400.864V226.024H430.048ZM505.999 274.152C498.916 274.152 492.559 272.787 486.927 270.056C481.38 267.24 477.028 263.4 473.871 258.536C470.714 253.587 469.135 248.125 469.135 242.152V213.992C469.135 208.019 470.714 202.643 473.871 197.864C477.028 193 481.38 189.203 486.927 186.472C492.559 183.656 498.916 182.248 505.999 182.248C513.167 182.248 519.524 183.656 525.071 186.472C530.703 189.203 535.098 193 538.255 197.864C541.412 202.643 542.991 208.019 542.991 213.992V242.152C542.991 248.125 541.412 253.587 538.255 258.536C535.098 263.4 530.703 267.24 525.071 270.056C519.439 272.787 513.082 274.152 505.999 274.152ZM505.999 263.656C513.935 263.656 520.122 261.693 524.559 257.768C528.996 253.843 531.215 248.595 531.215 242.024V214.248C531.215 207.677 528.996 202.472 524.559 198.632C520.122 194.707 513.935 192.744 505.999 192.744C498.148 192.744 492.004 194.707 487.567 198.632C483.13 202.472 480.911 207.677 480.911 214.248V242.024C480.911 248.595 483.13 253.843 487.567 257.768C492.004 261.693 498.148 263.656 505.999 263.656ZM557.71 192.232C557.71 189.075 558.777 186.643 560.91 184.936C563.043 183.144 565.987 182.248 569.742 182.248L600.718 256.616L598.286 262.632L599.182 263.016L631.95 182.248C635.705 182.248 638.649 183.144 640.782 184.936C643.001 186.728 644.11 189.203 644.11 192.36V274.152C636.174 274.152 632.206 270.867 632.206 264.296V210.408L635.534 201.576L634.51 201.32L605.966 270.696C605.539 271.72 604.857 272.531 603.918 273.128C602.979 273.811 601.998 274.152 600.974 274.152C599.865 274.152 598.841 273.853 597.902 273.256C596.963 272.659 596.281 271.805 595.854 270.696L567.31 201.192L566.286 201.576L569.614 210.28V264.296C569.614 267.539 568.59 270.013 566.542 271.72C564.579 273.341 561.635 274.152 557.71 274.152V192.232ZM662.085 189.032C662.085 187.411 662.682 186.088 663.877 185.064C665.072 183.955 666.522 183.4 668.229 183.4H724.933C724.933 186.984 724.208 189.629 722.757 191.336C721.306 193.043 719.045 193.896 715.973 193.896H674.117V222.568H709.957C709.957 226.152 709.232 228.797 707.781 230.504C706.33 232.211 704.112 233.064 701.125 233.064H674.117V262.504H718.661C721.648 262.504 723.866 263.357 725.317 265.064C726.768 266.771 727.493 269.416 727.493 273H668.229C666.522 273 665.072 272.488 663.877 271.464C662.682 270.355 662.085 268.989 662.085 267.368V189.032Z" fill="#2738F5"/>
</svg>
